<?xml version="1.0" standalone="no"?>
<!DOCTYPE svg PUBLIC "-//W3C//DTD SVG 20010904//EN"
 "http://www.w3.org/TR/2001/REC-SVG-20010904/DTD/svg10.dtd">
<svg version="1.0" xmlns="http://www.w3.org/2000/svg"
 width="120.000000pt" height="120.000000pt" viewBox="0 0 120.000000 120.000000"
 preserveAspectRatio="xMidYMid meet">
<g transform="translate(0.000000,120.000000) scale(0.100000,-0.100000)"
fill="#000000" stroke="none">
<path d="M313 1073 c59 -2 154 -2 210 0 56 1 8 3 -108 3 -116 0 -161 -2 -102
-3z"/>
<path d="M425 1060 l-220 -6 210 -2 c228 -2 298 -13 386 -58 103 -52 198 -180
215 -290 5 -34 9 -41 24 -37 25 7 27 -1 35 -96 3 -46 10 -91 15 -100 6 -10 10
-11 10 -3 0 6 7 12 15 12 12 0 15 14 15 65 0 51 -3 65 -15 65 -10 0 -15 10
-16 28 0 15 -4 36 -9 47 -6 13 -7 3 -4 -30 l5 -50 -19 65 c-10 36 -22 74 -26
85 -4 11 2 4 13 -15 26 -46 27 -31 1 21 -13 24 -25 37 -32 33 -7 -5 -9 -2 -5
9 3 9 -1 21 -11 29 -16 12 -16 11 -2 -7 14 -19 14 -19 -3 -6 -10 8 -16 20 -13
26 2 7 -20 36 -50 66 -30 29 -54 49 -54 44 0 -5 -7 0 -15 13 -25 34 -97 72
-125 66 -18 -4 -21 -3 -12 4 20 14 -6 21 -59 17 -38 -4 -40 -3 -14 4 26 8 27
9 5 8 -14 -1 -124 -4 -245 -7z m302 -16 c-3 -3 -12 -4 -19 -1 -8 3 -5 6 6 6
11 1 17 -2 13 -5z m69 -30 c18 -14 18 -14 -6 -3 -31 14 -36 19 -24 19 6 0 19
-7 30 -16z m65 -41 c13 -16 12 -17 -3 -4 -10 7 -18 15 -18 17 0 8 8 3 21 -13z
m84 -74 c28 -29 39 -44 25 -34 -24 18 -86 85 -78 85 2 0 26 -23 53 -51z m91
-127 c-4 -11 1 -35 9 -55 8 -21 12 -37 7 -37 -4 0 -15 23 -24 50 -9 28 -12 48
-7 44 5 -3 9 0 9 5 0 6 3 11 6 11 3 0 3 -8 0 -18z m84 -228 c0 -35 -4 -53 -10
-49 -6 4 -8 11 -5 16 4 5 1 9 -6 9 -8 0 -8 4 -2 13 6 6 10 24 9 40 -1 15 2 27
6 27 4 0 8 -25 8 -56z"/>
<path d="M194 875 c0 -99 2 -138 3 -87 2 51 2 132 0 180 -1 48 -3 6 -3 -93z"/>
<path d="M212 858 l-2 -188 -40 0 -40 0 0 -70 c0 -67 1 -70 24 -70 31 0 35
-27 38 -230 l2 -155 6 170 6 170 4 -170 4 -170 4 135 c2 74 0 163 -3 198 l-7
62 -34 0 -34 0 0 60 0 60 35 0 c20 0 38 6 41 13 2 7 3 94 1 192 l-2 180 -3
-187z"/>
<path d="M430 768 l0 -104 185 -3 186 -2 -7 28 c-11 47 -31 78 -70 113 -54 47
-96 61 -201 67 l-93 6 0 -105z m215 57 c40 -15 40 -15 -58 -14 -54 1 -99 0
-102 -2 -2 -3 -5 -28 -6 -57 -2 -28 -6 -52 -10 -52 -13 0 -21 38 -18 88 3 44
5 47 34 53 44 8 114 1 160 -16z m65 -41 c25 -10 47 -28 55 -45 17 -32 21 -63
5 -39 -6 10 -10 11 -10 3 0 -10 -34 -13 -135 -13 l-135 0 0 55 0 55 90 0 c59
0 103 -5 130 -16z m-7 -111 c-40 -2 -106 -2 -145 0 -40 1 -8 3 72 3 80 0 112
-2 73 -3z"/>
<path d="M618 783 c12 -2 30 -2 40 0 9 3 -1 5 -23 4 -22 0 -30 -2 -17 -4z"/>
<path d="M706 766 c18 -8 37 -22 43 -33 6 -10 10 -13 11 -8 0 23 -43 55 -72
55 -7 -1 1 -7 18 -14z"/>
<path d="M1096 763 c-6 -14 -5 -15 5 -6 7 7 10 15 7 18 -3 3 -9 -2 -12 -12z"/>
<path d="M148 683 c12 -2 30 -2 40 0 9 3 -1 5 -23 4 -22 0 -30 -2 -17 -4z"/>
<path d="M103 600 c0 -36 2 -50 4 -32 2 17 2 47 0 65 -2 17 -4 3 -4 -33z"/>
<path d="M1143 545 c0 -38 2 -53 4 -32 2 20 2 52 0 70 -2 17 -4 1 -4 -38z"/>
<path d="M430 515 c0 -14 5 -25 10 -25 6 0 10 7 10 15 0 8 9 15 20 15 13 0 20
-7 20 -20 0 -16 -7 -20 -30 -20 l-30 0 0 -70 0 -70 78 0 c149 0 240 51 275
154 l16 46 -185 0 -184 0 0 -25z m310 -6 c0 -6 5 -7 10 -4 6 3 10 2 10 -3 0
-5 -14 -9 -30 -9 -20 0 -26 3 -18 9 7 4 -25 7 -72 6 -85 -1 -85 -1 -25 -8 56
-6 57 -7 15 -8 -53 -2 -120 8 -120 17 0 4 52 8 115 9 72 1 115 -3 115 -9z m12
-61 c-34 -58 -119 -98 -212 -98 l-47 0 -2 65 -2 66 140 -2 141 -1 -18 -30z
m-295 -55 c-2 -16 -4 -5 -4 22 0 28 2 40 4 28 2 -13 2 -35 0 -50z"/>
<path d="M685 405 c-22 -14 -36 -25 -31 -25 10 0 76 40 76 46 0 6 -2 5 -45
-21z"/>
<path d="M618 373 c7 -3 16 -2 19 1 4 3 -2 6 -13 5 -11 0 -14 -3 -6 -6z"/>
<path d="M533 363 c15 -2 37 -2 50 0 12 2 0 4 -28 4 -27 0 -38 -2 -22 -4z"/>
<path d="M1015 501 c-20 -120 -119 -245 -236 -301 -88 -41 -172 -52 -373 -48
-96 2 -172 0 -170 -4 2 -3 -4 -9 -13 -11 -14 -4 -13 -5 4 -6 12 0 24 5 26 12
3 6 6 -3 6 -20 l1 -33 208 0 c190 1 230 4 317 24 24 6 27 5 15 -4 -13 -10 -12
-11 3 -6 10 3 22 6 25 6 4 0 0 5 -8 11 -12 9 -11 10 8 6 14 -3 20 -1 15 6 -4
7 0 8 11 4 11 -5 15 -3 10 5 -5 8 -2 9 9 5 16 -6 83 40 73 50 -7 7 36 53 44
48 4 -3 16 5 26 17 11 12 13 18 5 13 -9 -5 -12 -3 -9 6 3 8 10 13 16 12 7 -2
9 4 5 14 -4 11 -2 14 5 9 6 -3 16 2 21 13 16 30 12 40 -4 11 -17 -31 -19 -24
-4 19 7 18 14 28 18 23 3 -6 7 14 8 44 l2 54 -31 0 c-24 0 -28 3 -19 13 6 8 8
17 4 20 -3 4 1 7 10 7 10 0 17 5 17 10 0 6 -9 10 -19 10 -15 0 -21 -10 -26
-39z m55 -40 c0 -22 -13 -40 -24 -34 -7 5 -7 2 1 -8 10 -12 6 -27 -19 -80 -18
-35 -34 -68 -36 -73 -3 -5 1 -5 8 -1 9 5 11 4 6 -4 -4 -6 -11 -9 -15 -7 -4 3
-21 -8 -36 -24 -16 -17 -25 -30 -21 -30 5 0 3 -7 -4 -16 -16 -18 -55 -41 -46
-26 3 6 -4 9 -18 8 -13 0 -22 -4 -19 -9 2 -4 -8 -12 -23 -17 -21 -9 -31 -7
-48 7 -20 17 -20 17 -7 0 17 -22 15 -23 -33 -32 -32 -6 -37 -5 -31 6 5 8 0 6
-12 -3 -17 -16 -43 -18 -221 -18 l-202 0 1 23 c0 12 2 18 5 12 2 -6 57 -9 144
-7 93 2 140 0 140 -7 0 -6 10 -11 23 -10 21 0 21 1 2 8 -15 6 -7 10 35 17 30
4 62 8 72 9 9 0 20 3 24 8 4 4 17 -1 28 -10 12 -10 15 -11 9 -3 -10 11 -5 18
28 38 34 20 42 22 56 10 14 -11 16 -11 9 1 -6 9 3 24 28 47 21 19 41 34 47 34
5 0 9 5 9 11 0 5 5 7 10 4 6 -3 10 -1 10 5 0 6 6 8 13 4 9 -5 9 -4 0 6 -9 9
-9 17 0 31 10 16 12 16 22 2 10 -13 11 -10 7 17 -4 25 -2 31 8 25 10 -6 12 -4
7 7 -3 9 0 24 8 34 7 10 10 25 7 33 -4 10 -1 13 12 8 10 -4 15 -3 11 3 -3 6 1
10 9 10 9 0 16 -4 16 -9z"/>
<path d="M962 268 c2 -7 -3 -12 -9 -10 -7 1 -12 -4 -10 -10 1 -7 -4 -12 -11
-10 -8 1 -11 -2 -7 -8 3 -5 -1 -10 -9 -10 -17 0 -20 10 -8 26 4 5 0 2 -8 -6
-8 -9 -24 -22 -35 -29 -20 -12 -20 -12 0 -5 11 4 29 6 41 6 25 -2 81 53 65 63
-7 4 -10 1 -9 -7z"/>
<path d="M900 185 c-7 -8 -8 -15 -2 -15 5 0 15 7 22 15 7 8 8 15 2 15 -5 0
-15 -7 -22 -15z"/>
<path d="M665 130 c-3 -5 -12 -7 -20 -3 -8 3 -15 3 -15 0 0 -13 30 -14 40 -1
7 8 10 14 7 14 -3 0 -8 -4 -12 -10z"/>
<path d="M138 513 c6 -2 18 -2 25 0 6 3 1 5 -13 5 -14 0 -19 -2 -12 -5z"/>
<path d="M870 96 c0 -2 7 -7 16 -10 8 -3 12 -2 9 4 -6 10 -25 14 -25 6z"/>
<path d="M708 83 c6 -2 18 -2 25 0 6 3 1 5 -13 5 -14 0 -19 -2 -12 -5z"/>
<path d="M373 73 c59 -2 154 -2 210 0 56 1 8 3 -108 3 -116 0 -161 -2 -102 -3z"/>
</g>
</svg>
